<svg width="226" height="218" viewBox="0 0 226 218" fill="none" xmlns="http://www.w3.org/2000/svg">
<g filter="url(#filter0_d_14_150)">
<g filter="url(#filter1_d_14_150)">
<path d="M108.236 45.1404L88.6857 88.2936C88.5358 88.6246 88.7778 88.9999 89.1412 88.9999L134.148 88.9999C134.356 88.9999 134.542 88.8709 134.616 88.676L154.861 34.865C154.984 34.5381 154.746 34.1893 154.396 34.1953C145.259 34.3507 129.495 37.3301 121.015 37.3301C112.358 37.3301 108.92 42.4494 108.267 45.0529C108.259 45.0834 108.249 45.1118 108.236 45.1404Z" fill="#B2761F"/>
</g>
<path d="M89.1919 85.1143V88.4437" stroke="#B2761F" stroke-linecap="round"/>
<g filter="url(#filter2_d_14_150)">
<path d="M106.503 43.6488L89.4507 87.9147H133.506L152.402 36.1599C143.761 36.1599 127.098 35.8171 118.744 35.8171C110.391 35.8171 107.103 41.0382 106.503 43.6488Z" fill="white"/>
</g>
<g filter="url(#filter3_d_14_150)">
<path d="M106.403 40.5955L88.6396 85.0585C88.5084 85.3869 88.7503 85.744 89.1039 85.744H131.622C131.829 85.744 132.014 85.6165 132.088 85.4233L152.141 33.2404C152.267 32.9129 152.028 32.561 151.677 32.561H118C110.137 32.561 107.018 37.8373 106.427 40.5154C106.421 40.5431 106.413 40.5691 106.403 40.5955Z" fill="#FFAB31"/>
</g>
<g filter="url(#filter4_d_14_150)">
<path d="M106.904 39.2905L91.8998 76.3735C91.7668 76.7022 92.0087 77.061 92.3633 77.061H128.228C128.434 77.061 128.619 76.9345 128.694 76.7424L145.625 33.2424C145.752 32.9146 145.512 32.561 145.16 32.561H116.735C110.079 32.561 107.434 36.9666 106.93 39.2096C106.923 39.2376 106.915 39.2639 106.904 39.2905Z" fill="#835B21"/>
</g>
<path d="M89.752 85.7947V85.977" stroke="#B2761F" stroke-width="0.1" stroke-linecap="round"/>
<path d="M89.7222 85.8032H89.8875" stroke="#B2761F" stroke-width="0.1" stroke-linecap="round"/>
</g>
<g filter="url(#filter5_d_14_150)">
<g filter="url(#filter6_d_14_150)">
<path d="M99.5537 28.8599L80.0031 72.0131C79.8532 72.3441 80.0952 72.7194 80.4585 72.7194L125.465 72.7194C125.673 72.7194 125.86 72.5904 125.933 72.3955L146.179 18.5845C146.302 18.2576 146.063 17.9088 145.714 17.9147C136.577 18.0701 120.812 21.0495 112.333 21.0495C103.676 21.0495 100.238 26.1689 99.5841 28.7724C99.5765 28.8028 99.5666 28.8313 99.5537 28.8599Z" fill="#1E4088"/>
</g>
<path d="M80.5093 68.8337V72.1632" stroke="#1E4088" stroke-linecap="round"/>
<g filter="url(#filter7_d_14_150)">
<path d="M97.8205 27.3683L80.7686 71.6342H124.824L143.72 19.8794C135.079 19.8794 118.415 19.5366 110.062 19.5366C101.709 19.5366 98.4206 24.7577 97.8205 27.3683Z" fill="white"/>
</g>
<g filter="url(#filter8_d_14_150)">
<path d="M97.7201 24.3149L79.957 68.7779C79.8258 69.1063 80.0676 69.4634 80.4213 69.4634H122.939C123.146 69.4634 123.331 69.336 123.406 69.1428L143.459 16.9599C143.584 16.6324 143.345 16.2805 142.994 16.2805H109.317C101.454 16.2805 98.3352 21.5568 97.7447 24.2348C97.7386 24.2626 97.7307 24.2886 97.7201 24.3149Z" fill="#255ED6"/>
</g>
<path d="M81.0693 69.5144V69.6967" stroke="#1E4088" stroke-width="0.1" stroke-linecap="round"/>
<path d="M81.04 69.5227H81.2054" stroke="#1E4088" stroke-width="0.1" stroke-linecap="round"/>
<g filter="url(#filter9_d_14_150)">
<path d="M98.2218 23.01L83.2172 60.093C83.0842 60.4217 83.3261 60.7805 83.6807 60.7805H119.546C119.752 60.7805 119.937 60.654 120.012 60.4619L136.942 16.9619C137.07 16.6341 136.83 16.2805 136.478 16.2805H108.052C101.396 16.2805 98.7513 20.6861 98.247 22.9291C98.2407 22.9571 98.2326 22.9834 98.2218 23.01Z" fill="#17326C"/>
</g>
</g>
<g filter="url(#filter10_d_14_150)">
<g filter="url(#filter11_d_14_150)">
<path d="M90.8706 12.5794L71.32 55.7326C71.1701 56.0636 71.4121 56.4389 71.7754 56.4389L116.782 56.4389C116.99 56.4389 117.177 56.3099 117.25 56.115L137.496 2.304C137.619 1.97704 137.38 1.62829 137.031 1.63423C127.894 1.78962 112.129 4.76902 103.65 4.76902C94.9927 4.76902 91.5548 9.88838 90.901 12.4918C90.8934 12.5223 90.8835 12.5508 90.8706 12.5794Z" fill="#57A45B"/>
</g>
<path d="M71.8262 52.5532V55.8827" stroke="#57A45B" stroke-linecap="round"/>
<g filter="url(#filter12_d_14_150)">
<path d="M89.1374 11.0878L72.0854 55.3537H116.141L135.037 3.59885C126.395 3.59885 109.732 3.2561 101.379 3.2561C93.026 3.2561 89.7375 8.47721 89.1374 11.0878Z" fill="white"/>
</g>
<g filter="url(#filter13_d_14_150)">
<path d="M89.037 8.03443L71.2739 52.4974C71.1427 52.8258 71.3845 53.1829 71.7382 53.1829H114.256C114.463 53.1829 114.648 53.0554 114.723 52.8623L134.776 0.679354C134.901 0.351874 134.662 0 134.311 0H100.634C92.7714 0 89.652 5.27629 89.0616 7.95433C89.0555 7.98204 89.0476 8.00807 89.037 8.03443Z" fill="#66C26A"/>
</g>
<path d="M72.3867 53.2339V53.4162" stroke="#57A45B" stroke-width="0.1" stroke-linecap="round"/>
<path d="M72.3569 53.2422H72.5223" stroke="#57A45B" stroke-width="0.1" stroke-linecap="round"/>
</g>
<g filter="url(#filter14_i_14_150)">
<path d="M189.188 180.945H199.432V189.14L198.983 190.339V198.334L199.432 200.683V217.723H189.188V180.945ZM196.184 195.236C196.617 192.138 197.517 189.473 198.883 187.241C200.282 184.976 202.047 183.227 204.18 181.994C206.312 180.728 208.727 180.095 211.425 180.095C214.224 180.095 216.672 180.728 218.771 181.994C220.903 183.26 222.552 185.026 223.718 187.291C224.917 189.556 225.517 192.205 225.517 195.236C225.517 198.201 224.917 200.833 223.718 203.131C222.552 205.397 220.903 207.162 218.771 208.428C216.672 209.661 214.224 210.277 211.425 210.277C208.727 210.277 206.312 209.661 204.18 208.428C202.047 207.162 200.299 205.397 198.933 203.131C197.567 200.866 196.651 198.234 196.184 195.236ZM215.223 195.236C215.223 193.804 214.923 192.538 214.323 191.438C213.757 190.339 212.941 189.473 211.875 188.84C210.842 188.207 209.66 187.891 208.327 187.891C206.961 187.891 205.662 188.207 204.429 188.84C203.197 189.473 202.114 190.339 201.181 191.438C200.249 192.538 199.532 193.804 199.033 195.236C199.532 196.635 200.249 197.885 201.181 198.984C202.114 200.083 203.197 200.949 204.429 201.582C205.662 202.182 206.961 202.482 208.327 202.482C209.66 202.482 210.842 202.182 211.875 201.582C212.941 200.949 213.757 200.083 214.323 198.984C214.923 197.885 215.223 196.635 215.223 195.236Z" fill="#FCFCFC"/>
</g>
<g filter="url(#filter15_i_14_150)">
<path d="M169.232 210.277C165.768 210.277 162.669 209.644 159.938 208.378C157.239 207.112 155.107 205.347 153.541 203.082C151.976 200.783 151.193 198.118 151.193 195.086C151.193 192.121 151.942 189.523 153.442 187.291C154.941 185.026 156.989 183.26 159.588 181.994C162.22 180.728 165.185 180.095 168.483 180.095C171.914 180.095 174.829 180.845 177.227 182.344C179.659 183.81 181.525 185.892 182.824 188.59C184.157 191.289 184.823 194.47 184.823 198.134H159.438V191.988H179.076L175.728 194.137C175.595 192.671 175.229 191.438 174.629 190.439C174.029 189.406 173.23 188.623 172.23 188.09C171.264 187.557 170.098 187.291 168.732 187.291C167.233 187.291 165.951 187.591 164.885 188.19C163.819 188.79 162.986 189.623 162.386 190.689C161.787 191.722 161.487 192.938 161.487 194.337C161.487 196.136 161.887 197.668 162.686 198.934C163.519 200.167 164.718 201.116 166.284 201.782C167.883 202.449 169.832 202.782 172.13 202.782C174.229 202.782 176.311 202.515 178.377 201.982C180.475 201.416 182.374 200.633 184.073 199.634V206.13C182.108 207.462 179.859 208.495 177.327 209.228C174.829 209.927 172.13 210.277 169.232 210.277Z" fill="#FCFCFC"/>
</g>
<g filter="url(#filter16_i_14_150)">
<path d="M117.21 209.478V180.945H127.454V201.533L124.456 200.483L140.347 180.945H151.14L126.305 209.478H117.21ZM140.447 209.478L132.301 195.536L139.997 190.139L151.94 209.478H140.447Z" fill="#FCFCFC"/>
</g>
<g filter="url(#filter17_i_14_150)">
<path d="M97.2531 210.277C93.7885 210.277 90.6904 209.644 87.9587 208.378C85.2603 207.112 83.1282 205.347 81.5625 203.082C79.9967 200.783 79.2139 198.118 79.2139 195.086C79.2139 192.121 79.9634 189.523 81.4625 187.291C82.9616 185.026 85.0104 183.26 87.6089 181.994C90.2406 180.728 93.2055 180.095 96.5036 180.095C99.9349 180.095 102.85 180.845 105.248 182.344C107.68 183.81 109.546 185.892 110.845 188.59C112.178 191.289 112.844 194.47 112.844 198.134H87.459V191.988H107.097L103.749 194.137C103.616 192.671 103.25 191.438 102.65 190.439C102.05 189.406 101.251 188.623 100.251 188.09C99.2852 187.557 98.1193 187.291 96.7534 187.291C95.2543 187.291 93.9717 187.591 92.9057 188.19C91.8397 188.79 91.0068 189.623 90.4072 190.689C89.8076 191.722 89.5077 192.938 89.5077 194.337C89.5077 196.136 89.9075 197.668 90.707 198.934C91.5399 200.167 92.7391 201.116 94.3049 201.782C95.9039 202.449 97.8528 202.782 100.151 202.782C102.25 202.782 104.332 202.515 106.398 201.982C108.496 201.416 110.395 200.633 112.094 199.634V206.13C110.129 207.462 107.88 208.495 105.348 209.228C102.85 209.927 100.151 210.277 97.2531 210.277Z" fill="#FCFCFC"/>
</g>
<g filter="url(#filter18_i_14_150)">
<path d="M39.7656 180.945H50.0095V189.14L49.5598 190.339V198.334L50.0095 200.683V217.723H39.7656V180.945ZM46.7615 195.236C47.1945 192.138 48.094 189.473 49.4599 187.241C50.859 184.976 52.6246 183.227 54.7567 181.994C56.8888 180.728 59.304 180.095 62.0024 180.095C64.8007 180.095 67.2493 180.728 69.348 181.994C71.4801 183.26 73.1291 185.026 74.2951 187.291C75.4943 189.556 76.094 192.205 76.094 195.236C76.094 198.201 75.4943 200.833 74.2951 203.131C73.1291 205.397 71.4801 207.162 69.348 208.428C67.2493 209.661 64.8007 210.277 62.0024 210.277C59.304 210.277 56.8888 209.661 54.7567 208.428C52.6246 207.162 50.8757 205.397 49.5098 203.131C48.144 200.866 47.2278 198.234 46.7615 195.236ZM65.8001 195.236C65.8001 193.804 65.5003 192.538 64.9007 191.438C64.3343 190.339 63.5181 189.473 62.4521 188.84C61.4194 188.207 60.2368 187.891 58.9042 187.891C57.5384 187.891 56.2391 188.207 55.0066 188.84C53.7739 189.473 52.6913 190.339 51.7585 191.438C50.8257 192.538 50.1095 193.804 49.6098 195.236C50.1095 196.635 50.8257 197.885 51.7585 198.984C52.6913 200.083 53.7739 200.949 55.0066 201.582C56.2391 202.182 57.5384 202.482 58.9042 202.482C60.2368 202.482 61.4194 202.182 62.4521 201.582C63.5181 200.949 64.3343 200.083 64.9007 198.984C65.5003 197.885 65.8001 196.635 65.8001 195.236Z" fill="#FCFCFC"/>
</g>
<g filter="url(#filter19_i_14_150)">
<path d="M14.2915 176.547H24.6853V209.478H14.2915V176.547ZM0 172H38.9768V181.195H0V172Z" fill="#FCFCFC"/>
</g>
<g filter="url(#filter20_i_14_150)">
<path d="M194.71 154.277C191.112 154.277 187.947 153.661 185.215 152.428C182.517 151.162 180.418 149.397 178.919 147.131C177.42 144.833 176.671 142.201 176.671 139.236C176.671 136.205 177.42 133.556 178.919 131.291C180.418 129.026 182.517 127.26 185.215 125.994C187.947 124.728 191.112 124.095 194.71 124.095C198.308 124.095 201.456 124.728 204.154 125.994C206.886 127.26 209.001 129.026 210.5 131.291C212.033 133.556 212.799 136.205 212.799 139.236C212.799 142.201 212.033 144.833 210.5 147.131C209.001 149.397 206.886 151.162 204.154 152.428C201.456 153.661 198.308 154.277 194.71 154.277ZM162.479 153.478V124.945H172.723V153.478H162.479ZM168.276 142.634V135.089H183.317V142.634H168.276ZM194.71 146.732C196.342 146.732 197.725 146.432 198.857 145.832C200.023 145.233 200.906 144.366 201.506 143.234C202.139 142.101 202.455 140.752 202.455 139.186C202.455 137.62 202.139 136.288 201.506 135.189C200.906 134.056 200.023 133.19 198.857 132.59C197.725 131.991 196.342 131.691 194.71 131.691C193.077 131.691 191.678 131.991 190.512 132.59C189.346 133.19 188.447 134.056 187.814 135.189C187.214 136.288 186.914 137.62 186.914 139.186C186.914 140.752 187.214 142.101 187.814 143.234C188.447 144.366 189.346 145.233 190.512 145.832C191.678 146.432 193.077 146.732 194.71 146.732Z" fill="#255ED6"/>
</g>
<g filter="url(#filter21_i_14_150)">
<path d="M127.49 153.478V124.945H137.684V150.979L134.536 146.332H144.63C145.895 146.332 146.878 146.032 147.578 145.433C148.277 144.8 148.627 143.917 148.627 142.784C148.627 141.685 148.277 140.835 147.578 140.236C146.878 139.603 145.895 139.286 144.63 139.286H134.486V132.39H146.329C148.86 132.39 151.059 132.84 152.925 133.74C154.79 134.606 156.239 135.838 157.272 137.437C158.338 139.003 158.871 140.835 158.871 142.934C158.871 145.066 158.338 146.932 157.272 148.531C156.239 150.097 154.79 151.312 152.925 152.179C151.092 153.045 148.944 153.478 146.478 153.478H127.49Z" fill="#255ED6"/>
</g>
<g filter="url(#filter22_i_14_150)">
<path d="M89.2158 153.478L91.0148 139.186L89.2158 124.945H112.452C115.217 124.945 117.416 125.594 119.048 126.894C120.68 128.16 121.497 129.892 121.497 132.091C121.497 134.156 120.664 135.838 118.998 137.138C117.366 138.403 115.1 139.186 112.202 139.486L112.852 137.837C116.216 137.97 118.782 138.687 120.547 139.986C122.346 141.285 123.246 143.084 123.246 145.383C123.246 147.848 122.329 149.813 120.497 151.279C118.665 152.745 116.2 153.478 113.102 153.478H89.2158ZM99.06 151.329L95.1123 147.132H109.704C110.803 147.132 111.619 146.898 112.152 146.432C112.718 145.932 113.002 145.249 113.002 144.383C113.002 143.584 112.702 142.934 112.102 142.434C111.536 141.901 110.62 141.635 109.354 141.635H97.1111V136.338H108.155C109.187 136.338 109.97 136.105 110.503 135.638C111.036 135.172 111.303 134.556 111.303 133.79C111.303 133.023 111.053 132.407 110.553 131.941C110.087 131.474 109.354 131.241 108.354 131.241H95.1623L99.06 127.094L100.709 139.186L99.06 151.329Z" fill="#255ED6"/>
</g>
<g filter="url(#filter23_i_14_150)">
<path d="M70.0559 154.277C66.5913 154.277 63.4931 153.644 60.7614 152.378C58.063 151.112 55.9309 149.347 54.3652 147.082C52.7995 144.783 52.0166 142.118 52.0166 139.086C52.0166 136.121 52.7662 133.523 54.2653 131.291C55.7644 129.026 57.8131 127.26 60.4116 125.994C63.0434 124.728 66.0083 124.095 69.3063 124.095C72.7376 124.095 75.6525 124.845 78.0511 126.344C80.483 127.81 82.3485 129.892 83.6478 132.59C84.9803 135.289 85.6466 138.47 85.6466 142.134H60.2617V135.988H79.9L76.552 138.137C76.4187 136.671 76.0523 135.438 75.4526 134.439C74.853 133.406 74.0535 132.623 73.0541 132.09C72.088 131.557 70.922 131.291 69.5562 131.291C68.057 131.291 66.7745 131.591 65.7084 132.19C64.6424 132.79 63.8096 133.623 63.2099 134.689C62.6103 135.722 62.3105 136.938 62.3105 138.337C62.3105 140.136 62.7102 141.668 63.5098 142.934C64.3426 144.167 65.5419 145.116 67.1076 145.782C68.7067 146.449 70.6555 146.782 72.9541 146.782C75.0529 146.782 77.135 146.515 79.2004 145.982C81.2992 145.416 83.198 144.633 84.897 143.634V150.13C82.9315 151.462 80.6829 152.495 78.151 153.228C75.6525 153.927 72.9541 154.277 70.0559 154.277Z" fill="#255ED6"/>
</g>
<g filter="url(#filter24_i_14_150)">
<path d="M35.0375 116C38.1689 116 40.8673 116.533 43.1326 117.599C45.4313 118.665 47.1802 120.181 48.3795 122.146C49.5788 124.079 50.1785 126.344 50.1785 128.942C50.1785 131.507 49.5788 133.773 48.3795 135.738C47.1802 137.67 45.4313 139.17 43.1326 140.236C40.8673 141.302 38.1689 141.835 35.0375 141.835H18.7971V133.54H34.3879C36.0535 133.54 37.3528 133.14 38.2855 132.34C39.2183 131.507 39.6847 130.375 39.6847 128.942C39.6847 127.476 39.2183 126.344 38.2855 125.544C37.3528 124.711 36.0535 124.295 34.3879 124.295H19.6966L24.3438 119.498V153.478H14V116H35.0375Z" fill="#255ED6"/>
</g>
<defs>
<filter id="filter0_d_14_150" x="84.6035" y="32.561" width="74.2905" height="64.439" filterUnits="userSpaceOnUse" color-interpolation-filters="sRGB">
<feFlood flood-opacity="0" result="BackgroundImageFix"/>
<feColorMatrix in="SourceAlpha" type="matrix" values="0 0 0 0 0 0 0 0 0 0 0 0 0 0 0 0 0 0 127 0" result="hardAlpha"/>
<feOffset dy="4"/>
<feGaussianBlur stdDeviation="2"/>
<feComposite in2="hardAlpha" operator="out"/>
<feColorMatrix type="matrix" values="0 0 0 0 0 0 0 0 0 0 0 0 0 0 0 0 0 0 0.25 0"/>
<feBlend mode="normal" in2="BackgroundImageFix" result="effect1_dropShadow_14_150"/>
<feBlend mode="normal" in="SourceGraphic" in2="effect1_dropShadow_14_150" result="shape"/>
</filter>
<filter id="filter1_d_14_150" x="84.6406" y="34.1951" width="74.2534" height="62.8049" filterUnits="userSpaceOnUse" color-interpolation-filters="sRGB">
<feFlood flood-opacity="0" result="BackgroundImageFix"/>
<feColorMatrix in="SourceAlpha" type="matrix" values="0 0 0 0 0 0 0 0 0 0 0 0 0 0 0 0 0 0 127 0" result="hardAlpha"/>
<feOffset dy="4"/>
<feGaussianBlur stdDeviation="2"/>
<feComposite in2="hardAlpha" operator="out"/>
<feColorMatrix type="matrix" values="0 0 0 0 0 0 0 0 0 0 0 0 0 0 0 0 0 0 0.25 0"/>
<feBlend mode="normal" in2="BackgroundImageFix" result="effect1_dropShadow_14_150"/>
<feBlend mode="normal" in="SourceGraphic" in2="effect1_dropShadow_14_150" result="shape"/>
</filter>
<filter id="filter2_d_14_150" x="85.4507" y="35.8171" width="70.9512" height="60.0977" filterUnits="userSpaceOnUse" color-interpolation-filters="sRGB">
<feFlood flood-opacity="0" result="BackgroundImageFix"/>
<feColorMatrix in="SourceAlpha" type="matrix" values="0 0 0 0 0 0 0 0 0 0 0 0 0 0 0 0 0 0 127 0" result="hardAlpha"/>
<feOffset dy="4"/>
<feGaussianBlur stdDeviation="2"/>
<feComposite in2="hardAlpha" operator="out"/>
<feColorMatrix type="matrix" values="0 0 0 0 0 0 0 0 0 0 0 0 0 0 0 0 0 0 0.25 0"/>
<feBlend mode="normal" in2="BackgroundImageFix" result="effect1_dropShadow_14_150"/>
<feBlend mode="normal" in="SourceGraphic" in2="effect1_dropShadow_14_150" result="shape"/>
</filter>
<filter id="filter3_d_14_150" x="84.6035" y="32.561" width="71.5718" height="61.1829" filterUnits="userSpaceOnUse" color-interpolation-filters="sRGB">
<feFlood flood-opacity="0" result="BackgroundImageFix"/>
<feColorMatrix in="SourceAlpha" type="matrix" values="0 0 0 0 0 0 0 0 0 0 0 0 0 0 0 0 0 0 127 0" result="hardAlpha"/>
<feOffset dy="4"/>
<feGaussianBlur stdDeviation="2"/>
<feComposite in2="hardAlpha" operator="out"/>
<feColorMatrix type="matrix" values="0 0 0 0 0 0 0 0 0 0 0 0 0 0 0 0 0 0 0.25 0"/>
<feBlend mode="normal" in2="BackgroundImageFix" result="effect1_dropShadow_14_150"/>
<feBlend mode="normal" in="SourceGraphic" in2="effect1_dropShadow_14_150" result="shape"/>
</filter>
<filter id="filter4_d_14_150" x="87.8628" y="32.561" width="61.7964" height="52.5" filterUnits="userSpaceOnUse" color-interpolation-filters="sRGB">
<feFlood flood-opacity="0" result="BackgroundImageFix"/>
<feColorMatrix in="SourceAlpha" type="matrix" values="0 0 0 0 0 0 0 0 0 0 0 0 0 0 0 0 0 0 127 0" result="hardAlpha"/>
<feOffset dy="4"/>
<feGaussianBlur stdDeviation="2"/>
<feComposite in2="hardAlpha" operator="out"/>
<feColorMatrix type="matrix" values="0 0 0 0 0 0 0 0 0 0 0 0 0 0 0 0 0 0 0.25 0"/>
<feBlend mode="normal" in2="BackgroundImageFix" result="effect1_dropShadow_14_150"/>
<feBlend mode="normal" in="SourceGraphic" in2="effect1_dropShadow_14_150" result="shape"/>
</filter>
<filter id="filter5_d_14_150" x="75.9209" y="16.2805" width="74.2905" height="64.439" filterUnits="userSpaceOnUse" color-interpolation-filters="sRGB">
<feFlood flood-opacity="0" result="BackgroundImageFix"/>
<feColorMatrix in="SourceAlpha" type="matrix" values="0 0 0 0 0 0 0 0 0 0 0 0 0 0 0 0 0 0 127 0" result="hardAlpha"/>
<feOffset dy="4"/>
<feGaussianBlur stdDeviation="2"/>
<feComposite in2="hardAlpha" operator="out"/>
<feColorMatrix type="matrix" values="0 0 0 0 0 0 0 0 0 0 0 0 0 0 0 0 0 0 0.25 0"/>
<feBlend mode="normal" in2="BackgroundImageFix" result="effect1_dropShadow_14_150"/>
<feBlend mode="normal" in="SourceGraphic" in2="effect1_dropShadow_14_150" result="shape"/>
</filter>
<filter id="filter6_d_14_150" x="75.958" y="17.9146" width="74.2534" height="62.8049" filterUnits="userSpaceOnUse" color-interpolation-filters="sRGB">
<feFlood flood-opacity="0" result="BackgroundImageFix"/>
<feColorMatrix in="SourceAlpha" type="matrix" values="0 0 0 0 0 0 0 0 0 0 0 0 0 0 0 0 0 0 127 0" result="hardAlpha"/>
<feOffset dy="4"/>
<feGaussianBlur stdDeviation="2"/>
<feComposite in2="hardAlpha" operator="out"/>
<feColorMatrix type="matrix" values="0 0 0 0 0 0 0 0 0 0 0 0 0 0 0 0 0 0 0.25 0"/>
<feBlend mode="normal" in2="BackgroundImageFix" result="effect1_dropShadow_14_150"/>
<feBlend mode="normal" in="SourceGraphic" in2="effect1_dropShadow_14_150" result="shape"/>
</filter>
<filter id="filter7_d_14_150" x="76.7686" y="19.5366" width="70.9512" height="60.0977" filterUnits="userSpaceOnUse" color-interpolation-filters="sRGB">
<feFlood flood-opacity="0" result="BackgroundImageFix"/>
<feColorMatrix in="SourceAlpha" type="matrix" values="0 0 0 0 0 0 0 0 0 0 0 0 0 0 0 0 0 0 127 0" result="hardAlpha"/>
<feOffset dy="4"/>
<feGaussianBlur stdDeviation="2"/>
<feComposite in2="hardAlpha" operator="out"/>
<feColorMatrix type="matrix" values="0 0 0 0 0 0 0 0 0 0 0 0 0 0 0 0 0 0 0.25 0"/>
<feBlend mode="normal" in2="BackgroundImageFix" result="effect1_dropShadow_14_150"/>
<feBlend mode="normal" in="SourceGraphic" in2="effect1_dropShadow_14_150" result="shape"/>
</filter>
<filter id="filter8_d_14_150" x="75.9209" y="16.2805" width="71.5718" height="61.1829" filterUnits="userSpaceOnUse" color-interpolation-filters="sRGB">
<feFlood flood-opacity="0" result="BackgroundImageFix"/>
<feColorMatrix in="SourceAlpha" type="matrix" values="0 0 0 0 0 0 0 0 0 0 0 0 0 0 0 0 0 0 127 0" result="hardAlpha"/>
<feOffset dy="4"/>
<feGaussianBlur stdDeviation="2"/>
<feComposite in2="hardAlpha" operator="out"/>
<feColorMatrix type="matrix" values="0 0 0 0 0 0 0 0 0 0 0 0 0 0 0 0 0 0 0.25 0"/>
<feBlend mode="normal" in2="BackgroundImageFix" result="effect1_dropShadow_14_150"/>
<feBlend mode="normal" in="SourceGraphic" in2="effect1_dropShadow_14_150" result="shape"/>
</filter>
<filter id="filter9_d_14_150" x="79.1802" y="16.2805" width="61.7964" height="52.5" filterUnits="userSpaceOnUse" color-interpolation-filters="sRGB">
<feFlood flood-opacity="0" result="BackgroundImageFix"/>
<feColorMatrix in="SourceAlpha" type="matrix" values="0 0 0 0 0 0 0 0 0 0 0 0 0 0 0 0 0 0 127 0" result="hardAlpha"/>
<feOffset dy="4"/>
<feGaussianBlur stdDeviation="2"/>
<feComposite in2="hardAlpha" operator="out"/>
<feColorMatrix type="matrix" values="0 0 0 0 0 0 0 0 0 0 0 0 0 0 0 0 0 0 0.25 0"/>
<feBlend mode="normal" in2="BackgroundImageFix" result="effect1_dropShadow_14_150"/>
<feBlend mode="normal" in="SourceGraphic" in2="effect1_dropShadow_14_150" result="shape"/>
</filter>
<filter id="filter10_d_14_150" x="67.2378" y="0" width="74.2905" height="64.439" filterUnits="userSpaceOnUse" color-interpolation-filters="sRGB">
<feFlood flood-opacity="0" result="BackgroundImageFix"/>
<feColorMatrix in="SourceAlpha" type="matrix" values="0 0 0 0 0 0 0 0 0 0 0 0 0 0 0 0 0 0 127 0" result="hardAlpha"/>
<feOffset dy="4"/>
<feGaussianBlur stdDeviation="2"/>
<feComposite in2="hardAlpha" operator="out"/>
<feColorMatrix type="matrix" values="0 0 0 0 0 0 0 0 0 0 0 0 0 0 0 0 0 0 0.25 0"/>
<feBlend mode="normal" in2="BackgroundImageFix" result="effect1_dropShadow_14_150"/>
<feBlend mode="normal" in="SourceGraphic" in2="effect1_dropShadow_14_150" result="shape"/>
</filter>
<filter id="filter11_d_14_150" x="67.2749" y="1.63403" width="74.2534" height="62.8049" filterUnits="userSpaceOnUse" color-interpolation-filters="sRGB">
<feFlood flood-opacity="0" result="BackgroundImageFix"/>
<feColorMatrix in="SourceAlpha" type="matrix" values="0 0 0 0 0 0 0 0 0 0 0 0 0 0 0 0 0 0 127 0" result="hardAlpha"/>
<feOffset dy="4"/>
<feGaussianBlur stdDeviation="2"/>
<feComposite in2="hardAlpha" operator="out"/>
<feColorMatrix type="matrix" values="0 0 0 0 0 0 0 0 0 0 0 0 0 0 0 0 0 0 0.25 0"/>
<feBlend mode="normal" in2="BackgroundImageFix" result="effect1_dropShadow_14_150"/>
<feBlend mode="normal" in="SourceGraphic" in2="effect1_dropShadow_14_150" result="shape"/>
</filter>
<filter id="filter12_d_14_150" x="68.0854" y="3.2561" width="70.9512" height="60.0977" filterUnits="userSpaceOnUse" color-interpolation-filters="sRGB">
<feFlood flood-opacity="0" result="BackgroundImageFix"/>
<feColorMatrix in="SourceAlpha" type="matrix" values="0 0 0 0 0 0 0 0 0 0 0 0 0 0 0 0 0 0 127 0" result="hardAlpha"/>
<feOffset dy="4"/>
<feGaussianBlur stdDeviation="2"/>
<feComposite in2="hardAlpha" operator="out"/>
<feColorMatrix type="matrix" values="0 0 0 0 0 0 0 0 0 0 0 0 0 0 0 0 0 0 0.25 0"/>
<feBlend mode="normal" in2="BackgroundImageFix" result="effect1_dropShadow_14_150"/>
<feBlend mode="normal" in="SourceGraphic" in2="effect1_dropShadow_14_150" result="shape"/>
</filter>
<filter id="filter13_d_14_150" x="67.2378" y="0" width="71.5718" height="61.1829" filterUnits="userSpaceOnUse" color-interpolation-filters="sRGB">
<feFlood flood-opacity="0" result="BackgroundImageFix"/>
<feColorMatrix in="SourceAlpha" type="matrix" values="0 0 0 0 0 0 0 0 0 0 0 0 0 0 0 0 0 0 127 0" result="hardAlpha"/>
<feOffset dy="4"/>
<feGaussianBlur stdDeviation="2"/>
<feComposite in2="hardAlpha" operator="out"/>
<feColorMatrix type="matrix" values="0 0 0 0 0 0 0 0 0 0 0 0 0 0 0 0 0 0 0.25 0"/>
<feBlend mode="normal" in2="BackgroundImageFix" result="effect1_dropShadow_14_150"/>
<feBlend mode="normal" in="SourceGraphic" in2="effect1_dropShadow_14_150" result="shape"/>
</filter>
<filter id="filter14_i_14_150" x="189.188" y="180.095" width="36.3281" height="41.6277" filterUnits="userSpaceOnUse" color-interpolation-filters="sRGB">
<feFlood flood-opacity="0" result="BackgroundImageFix"/>
<feBlend mode="normal" in="SourceGraphic" in2="BackgroundImageFix" result="shape"/>
<feColorMatrix in="SourceAlpha" type="matrix" values="0 0 0 0 0 0 0 0 0 0 0 0 0 0 0 0 0 0 127 0" result="hardAlpha"/>
<feOffset dy="4"/>
<feGaussianBlur stdDeviation="2"/>
<feComposite in2="hardAlpha" operator="arithmetic" k2="-1" k3="1"/>
<feColorMatrix type="matrix" values="0 0 0 0 0 0 0 0 0 0 0 0 0 0 0 0 0 0 0.25 0"/>
<feBlend mode="normal" in2="shape" result="effect1_innerShadow_14_150"/>
</filter>
<filter id="filter15_i_14_150" x="151.193" y="180.095" width="33.6299" height="34.1821" filterUnits="userSpaceOnUse" color-interpolation-filters="sRGB">
<feFlood flood-opacity="0" result="BackgroundImageFix"/>
<feBlend mode="normal" in="SourceGraphic" in2="BackgroundImageFix" result="shape"/>
<feColorMatrix in="SourceAlpha" type="matrix" values="0 0 0 0 0 0 0 0 0 0 0 0 0 0 0 0 0 0 127 0" result="hardAlpha"/>
<feOffset dy="4"/>
<feGaussianBlur stdDeviation="2"/>
<feComposite in2="hardAlpha" operator="arithmetic" k2="-1" k3="1"/>
<feColorMatrix type="matrix" values="0 0 0 0 0 0 0 0 0 0 0 0 0 0 0 0 0 0 0.25 0"/>
<feBlend mode="normal" in2="shape" result="effect1_innerShadow_14_150"/>
</filter>
<filter id="filter16_i_14_150" x="117.21" y="180.945" width="34.7295" height="32.533" filterUnits="userSpaceOnUse" color-interpolation-filters="sRGB">
<feFlood flood-opacity="0" result="BackgroundImageFix"/>
<feBlend mode="normal" in="SourceGraphic" in2="BackgroundImageFix" result="shape"/>
<feColorMatrix in="SourceAlpha" type="matrix" values="0 0 0 0 0 0 0 0 0 0 0 0 0 0 0 0 0 0 127 0" result="hardAlpha"/>
<feOffset dy="4"/>
<feGaussianBlur stdDeviation="2"/>
<feComposite in2="hardAlpha" operator="arithmetic" k2="-1" k3="1"/>
<feColorMatrix type="matrix" values="0 0 0 0 0 0 0 0 0 0 0 0 0 0 0 0 0 0 0.25 0"/>
<feBlend mode="normal" in2="shape" result="effect1_innerShadow_14_150"/>
</filter>
<filter id="filter17_i_14_150" x="79.2139" y="180.095" width="33.6299" height="34.1821" filterUnits="userSpaceOnUse" color-interpolation-filters="sRGB">
<feFlood flood-opacity="0" result="BackgroundImageFix"/>
<feBlend mode="normal" in="SourceGraphic" in2="BackgroundImageFix" result="shape"/>
<feColorMatrix in="SourceAlpha" type="matrix" values="0 0 0 0 0 0 0 0 0 0 0 0 0 0 0 0 0 0 127 0" result="hardAlpha"/>
<feOffset dy="4"/>
<feGaussianBlur stdDeviation="2"/>
<feComposite in2="hardAlpha" operator="arithmetic" k2="-1" k3="1"/>
<feColorMatrix type="matrix" values="0 0 0 0 0 0 0 0 0 0 0 0 0 0 0 0 0 0 0.25 0"/>
<feBlend mode="normal" in2="shape" result="effect1_innerShadow_14_150"/>
</filter>
<filter id="filter18_i_14_150" x="39.7656" y="180.095" width="36.3281" height="41.6277" filterUnits="userSpaceOnUse" color-interpolation-filters="sRGB">
<feFlood flood-opacity="0" result="BackgroundImageFix"/>
<feBlend mode="normal" in="SourceGraphic" in2="BackgroundImageFix" result="shape"/>
<feColorMatrix in="SourceAlpha" type="matrix" values="0 0 0 0 0 0 0 0 0 0 0 0 0 0 0 0 0 0 127 0" result="hardAlpha"/>
<feOffset dy="4"/>
<feGaussianBlur stdDeviation="2"/>
<feComposite in2="hardAlpha" operator="arithmetic" k2="-1" k3="1"/>
<feColorMatrix type="matrix" values="0 0 0 0 0 0 0 0 0 0 0 0 0 0 0 0 0 0 0.25 0"/>
<feBlend mode="normal" in2="shape" result="effect1_innerShadow_14_150"/>
</filter>
<filter id="filter19_i_14_150" x="0" y="172" width="38.9766" height="41.4778" filterUnits="userSpaceOnUse" color-interpolation-filters="sRGB">
<feFlood flood-opacity="0" result="BackgroundImageFix"/>
<feBlend mode="normal" in="SourceGraphic" in2="BackgroundImageFix" result="shape"/>
<feColorMatrix in="SourceAlpha" type="matrix" values="0 0 0 0 0 0 0 0 0 0 0 0 0 0 0 0 0 0 127 0" result="hardAlpha"/>
<feOffset dy="4"/>
<feGaussianBlur stdDeviation="2"/>
<feComposite in2="hardAlpha" operator="arithmetic" k2="-1" k3="1"/>
<feColorMatrix type="matrix" values="0 0 0 0 0 0 0 0 0 0 0 0 0 0 0 0 0 0 0.25 0"/>
<feBlend mode="normal" in2="shape" result="effect1_innerShadow_14_150"/>
</filter>
<filter id="filter20_i_14_150" x="162.479" y="124.095" width="50.3198" height="34.1821" filterUnits="userSpaceOnUse" color-interpolation-filters="sRGB">
<feFlood flood-opacity="0" result="BackgroundImageFix"/>
<feBlend mode="normal" in="SourceGraphic" in2="BackgroundImageFix" result="shape"/>
<feColorMatrix in="SourceAlpha" type="matrix" values="0 0 0 0 0 0 0 0 0 0 0 0 0 0 0 0 0 0 127 0" result="hardAlpha"/>
<feOffset dy="4"/>
<feGaussianBlur stdDeviation="2"/>
<feComposite in2="hardAlpha" operator="arithmetic" k2="-1" k3="1"/>
<feColorMatrix type="matrix" values="0 0 0 0 0 0 0 0 0 0 0 0 0 0 0 0 0 0 0.25 0"/>
<feBlend mode="normal" in2="shape" result="effect1_innerShadow_14_150"/>
</filter>
<filter id="filter21_i_14_150" x="127.49" y="124.945" width="31.3813" height="32.533" filterUnits="userSpaceOnUse" color-interpolation-filters="sRGB">
<feFlood flood-opacity="0" result="BackgroundImageFix"/>
<feBlend mode="normal" in="SourceGraphic" in2="BackgroundImageFix" result="shape"/>
<feColorMatrix in="SourceAlpha" type="matrix" values="0 0 0 0 0 0 0 0 0 0 0 0 0 0 0 0 0 0 127 0" result="hardAlpha"/>
<feOffset dy="4"/>
<feGaussianBlur stdDeviation="2"/>
<feComposite in2="hardAlpha" operator="arithmetic" k2="-1" k3="1"/>
<feColorMatrix type="matrix" values="0 0 0 0 0 0 0 0 0 0 0 0 0 0 0 0 0 0 0.25 0"/>
<feBlend mode="normal" in2="shape" result="effect1_innerShadow_14_150"/>
</filter>
<filter id="filter22_i_14_150" x="89.2158" y="124.945" width="34.0298" height="32.533" filterUnits="userSpaceOnUse" color-interpolation-filters="sRGB">
<feFlood flood-opacity="0" result="BackgroundImageFix"/>
<feBlend mode="normal" in="SourceGraphic" in2="BackgroundImageFix" result="shape"/>
<feColorMatrix in="SourceAlpha" type="matrix" values="0 0 0 0 0 0 0 0 0 0 0 0 0 0 0 0 0 0 127 0" result="hardAlpha"/>
<feOffset dy="4"/>
<feGaussianBlur stdDeviation="2"/>
<feComposite in2="hardAlpha" operator="arithmetic" k2="-1" k3="1"/>
<feColorMatrix type="matrix" values="0 0 0 0 0 0 0 0 0 0 0 0 0 0 0 0 0 0 0.25 0"/>
<feBlend mode="normal" in2="shape" result="effect1_innerShadow_14_150"/>
</filter>
<filter id="filter23_i_14_150" x="52.0166" y="124.095" width="33.6299" height="34.1821" filterUnits="userSpaceOnUse" color-interpolation-filters="sRGB">
<feFlood flood-opacity="0" result="BackgroundImageFix"/>
<feBlend mode="normal" in="SourceGraphic" in2="BackgroundImageFix" result="shape"/>
<feColorMatrix in="SourceAlpha" type="matrix" values="0 0 0 0 0 0 0 0 0 0 0 0 0 0 0 0 0 0 127 0" result="hardAlpha"/>
<feOffset dy="4"/>
<feGaussianBlur stdDeviation="2"/>
<feComposite in2="hardAlpha" operator="arithmetic" k2="-1" k3="1"/>
<feColorMatrix type="matrix" values="0 0 0 0 0 0 0 0 0 0 0 0 0 0 0 0 0 0 0.25 0"/>
<feBlend mode="normal" in2="shape" result="effect1_innerShadow_14_150"/>
</filter>
<filter id="filter24_i_14_150" x="14" y="116" width="36.1782" height="41.4778" filterUnits="userSpaceOnUse" color-interpolation-filters="sRGB">
<feFlood flood-opacity="0" result="BackgroundImageFix"/>
<feBlend mode="normal" in="SourceGraphic" in2="BackgroundImageFix" result="shape"/>
<feColorMatrix in="SourceAlpha" type="matrix" values="0 0 0 0 0 0 0 0 0 0 0 0 0 0 0 0 0 0 127 0" result="hardAlpha"/>
<feOffset dy="4"/>
<feGaussianBlur stdDeviation="2"/>
<feComposite in2="hardAlpha" operator="arithmetic" k2="-1" k3="1"/>
<feColorMatrix type="matrix" values="0 0 0 0 0 0 0 0 0 0 0 0 0 0 0 0 0 0 0.25 0"/>
<feBlend mode="normal" in2="shape" result="effect1_innerShadow_14_150"/>
</filter>
</defs>
</svg>
